<?xml version="1.0" encoding="utf-8"?>
<svg width="100px" height="100px" viewBox="0 0 100 100" version="1.1" xmlns:xlink="http://www.w3.org/1999/xlink" xmlns="http://www.w3.org/2000/svg">
  <defs>
    <path d="M0 0L100 0L100 100L0 100L0 0Z" id="path_1" />
    <clipPath id="mask_1">
      <use xlink:href="#path_1" />
    </clipPath>
  </defs>
  <g id="right-arrow-next-svgrepo-com">
    <path d="M0 0L100 0L100 100L0 100L0 0Z" id="Background" fill="#FFFFFF" fill-opacity="0" fill-rule="evenodd" stroke="none" />
    <g clip-path="url(#mask_1)">
      <path d="M50 1.0416C22.4375 1.0416 0 23 0 50C0 77 22.4375 98.9584 50 98.9584C77.5625 98.9584 100 77 100 50C100 23 77.5625 1.0416 50 1.0416L50 1.0416ZM50 94.7916C24.7291 94.7916 4.1666 74.6875 4.1666 50C4.1666 25.3125 24.7291 5.20839 50 5.20839C75.2709 5.20839 95.8334 25.2916 95.8334 50C95.8334 74.7084 75.2709 94.7916 50 94.7916L50 94.7916Z" id="Shape" fill="#014949" fill-rule="evenodd" stroke="none" />
      <path d="M72.125 48.3334L36.6459 22.2709C35.7293 21.5625 34.4375 21.7293 33.7293 22.6459C33.0209 23.5625 33.1877 24.8543 34.1043 25.5625C34.1252 25.5834 34.1668 25.6041 34.1877 25.625L67.375 50L34.1875 74.3541C33.25 75.0416 33.0625 76.3332 33.75 77.2707C34.4375 78.2082 35.7291 78.3957 36.6666 77.7082L72.1459 51.6875C73.0834 51 73.2709 49.7084 72.5834 48.7709C72.4375 48.6041 72.2916 48.4584 72.125 48.3334L72.125 48.3334Z" id="Shape" fill="#014949" stroke="none" />
    </g>
  </g>
</svg>